<svg width="64" height="64" viewBox="0 0 64 64" xmlns="http://www.w3.org/2000/svg">
  <defs>
    <linearGradient id="dnaGrad" x1="0%" y1="0%" x2="100%" y2="100%">
      <stop offset="0%" style="stop-color:#a6ce39;stop-opacity:1" />
      <stop offset="100%" style="stop-color:#58a6ff;stop-opacity:1" />
    </linearGradient>
  </defs>
  
  <!-- Background circle -->
  <circle cx="32" cy="32" r="30" fill="#0d1117" stroke="url(#dnaGrad)" stroke-width="3"/>
  
  <!-- DNA Helix Left Strand -->
  <path d="M 18 12 Q 24 20, 18 28 Q 12 36, 18 44 Q 24 52, 18 60" 
        stroke="url(#dnaGrad)" stroke-width="2.5" fill="none" stroke-linecap="round"/>
  
  <!-- DNA Helix Right Strand -->
  <path d="M 46 12 Q 40 20, 46 28 Q 52 36, 46 44 Q 40 52, 46 60" 
        stroke="url(#dnaGrad)" stroke-width="2.5" fill="none" stroke-linecap="round"/>
  
  <!-- Base Pairs (connecting lines) -->
  <line x1="18" y1="20" x2="46" y2="20" stroke="#58a6ff" stroke-width="1.5" opacity="0.7"/>
  <line x1="18" y1="36" x2="46" y2="36" stroke="#a6ce39" stroke-width="1.5" opacity="0.7"/>
  <line x1="18" y1="52" x2="46" y2="52" stroke="#58a6ff" stroke-width="1.5" opacity="0.7"/>
  
  <!-- Small dots on base pairs -->
  <circle cx="18" cy="20" r="2" fill="#58a6ff"/>
  <circle cx="46" cy="20" r="2" fill="#58a6ff"/>
  <circle cx="18" cy="36" r="2" fill="#a6ce39"/>
  <circle cx="46" cy="36" r="2" fill="#a6ce39"/>
  <circle cx="18" cy="52" r="2" fill="#58a6ff"/>
  <circle cx="46" cy="52" r="2" fill="#58a6ff"/>
</svg>